<?xml version="1.0" encoding="UTF-8" standalone="no"?>
<svg
   xmlns:dc="http://purl.org/dc/elements/1.1/"
   xmlns:cc="http://creativecommons.org/ns#"
   xmlns:rdf="http://www.w3.org/1999/02/22-rdf-syntax-ns#"
   xmlns:svg="http://www.w3.org/2000/svg"
   xmlns="http://www.w3.org/2000/svg"
   viewBox="250 660 940 140"
   height="100"
   width="100"
   xml:space="preserve"
   id="svg2"
   version="1.1"><metadata
     id="metadata8"><rdf:RDF><cc:Work
         rdf:about=""><dc:format>image/svg+xml</dc:format><dc:type
           rdf:resource="http://purl.org/dc/dcmitype/StillImage" /></cc:Work></rdf:RDF></metadata><defs
     id="defs6"><clipPath
       id="clipPath18"
       clipPathUnits="userSpaceOnUse"><path
         id="path16"
         d="M 0,1080 H 1080 V 0 H 0 Z" /></clipPath></defs><g
     transform="matrix(1.3333333,0,0,-1.3333333,0,1440)"
     id="g10"><g
       id="g12"><g
         clip-path="url(#clipPath18)"
         id="g14"><g
           transform="translate(349.1055,362.2061)"
           id="g20"><path
             id="path22"
             style="fill:#1A1E1D;fill-opacity:1;fill-rule:nonzero;stroke:none"
             d="M 0,0 C -0.019,0.018 -0.038,0.034 -0.059,0.05 H 0 Z M 1.168,1.694 C 1.034,1.75 0.891,1.769 0.75,1.751 h -5.867 c -0.47,0 -0.851,-0.381 -0.851,-0.851 v -1.522 c 0,-0.47 0.381,-0.851 0.851,-0.851 h 3.698 l 0.004,-0.428 c 0.009,-1.644 -0.319,-2.946 -0.976,-3.87 -0.541,-0.757 -1.292,-1.291 -2.296,-1.628 -0.811,-0.271 -1.74,-0.408 -2.792,-0.408 -1.363,0 -2.475,0.21 -3.304,0.625 -0.915,0.457 -1.595,1.259 -2.078,2.45 -0.567,1.401 -0.854,3.39 -0.854,5.912 0,2.528 0.324,4.522 0.962,5.923 0.519,1.128 1.239,1.898 2.194,2.349 0.423,0.194 0.883,0.331 1.369,0.407 1.147,0.179 2.755,0.164 3.907,-0.084 C -4.69,9.646 -4.156,9.432 -3.709,9.146 -3.223,8.82 -2.796,8.37 -2.442,7.808 -2.075,7.223 -1.78,6.455 -1.563,5.525 -1.474,5.14 -1.13,4.867 -0.735,4.867 h 1.492 c 0.251,0 0.489,0.112 0.65,0.303 0.162,0.191 0.231,0.445 0.188,0.692 -0.224,1.298 -0.621,2.432 -1.184,3.375 -0.709,1.163 -1.672,2.074 -2.865,2.704 -1.361,0.715 -3.031,1.078 -4.994,1.078 -2.498,0 -4.532,-0.613 -6.043,-1.816 -1.315,-1.034 -2.245,-2.549 -2.767,-4.503 -0.39,-1.463 -0.589,-3.32 -0.589,-5.52 0,-1.958 0.161,-3.683 0.478,-5.124 0.33,-1.499 0.868,-2.763 1.596,-3.752 0.774,-1.067 1.785,-1.87 3.004,-2.388 1.186,-0.505 2.629,-0.761 4.321,-0.761 1.144,0 2.174,0.12 3.059,0.356 1.736,0.456 3.108,1.251 4.074,2.357 0.844,0.959 1.419,2.035 1.711,3.201 0.115,0.462 0.186,0.835 0.215,1.139 0.028,0.28 0.047,0.64 0.059,1.082 0.02,0.816 0.031,1.456 0.031,1.917 v 1.709 c 0,0.344 -0.215,0.646 -0.533,0.778" /></g><g
           transform="translate(367.4756,363.4756)"
           id="g24"><path
             id="path26"
             style="fill:#1A1E1D;fill-opacity:1;fill-rule:nonzero;stroke:none"
             d="m 0,0 h -3.267 v 8.385 h 3.252 c 1.14,0 2.134,-0.06 2.956,-0.178 C 3.705,8.098 4.368,7.895 4.901,7.607 5.464,7.292 5.882,6.866 6.18,6.304 6.486,5.728 6.641,4.94 6.641,3.967 6.641,3.042 6.49,2.308 6.192,1.783 5.905,1.277 5.5,0.906 4.957,0.65 4.42,0.4 3.766,0.229 3.01,0.142 2.208,0.048 1.195,0 0,0 m 1.145,-1.771 -0.049,0.084 c 0.029,0 0.057,0.001 0.086,0.002 C 1.167,-1.713 1.155,-1.741 1.145,-1.771 M 11.16,-9.257 c -0.209,0.384 -0.676,0.546 -1.08,0.376 C 9.916,-8.95 9.702,-9.011 9.445,-9.061 9.428,-9.063 9.412,-9.067 9.396,-9.071 9.059,-9.156 8.886,-9.169 8.813,-9.169 c -0.365,0 -0.737,0.136 -1.141,0.416 -0.47,0.325 -0.968,0.827 -1.487,1.498 -0.482,0.609 -0.994,1.356 -1.519,2.215 -0.384,0.63 -0.83,1.384 -1.336,2.264 0.62,0.087 1.197,0.205 1.725,0.352 0.931,0.26 1.745,0.65 2.416,1.154 1.516,1.129 2.286,2.902 2.286,5.268 0,1.452 -0.245,2.681 -0.727,3.65 C 8.535,8.644 7.806,9.441 6.859,10.025 6.039,10.522 5.043,10.875 3.9,11.075 2.815,11.265 1.54,11.36 0.109,11.36 H -5.64 c -0.238,0 -0.465,-0.099 -0.626,-0.275 -0.161,-0.175 -0.242,-0.41 -0.221,-0.647 l 0.104,-1.203 v -20.11 c 0,-0.47 0.381,-0.851 0.851,-0.851 h 1.414 c 0.47,0 0.851,0.381 0.851,0.851 v 7.914 h 3.139 l 2.143,-3.647 c 0.701,-1.21 1.363,-2.207 1.968,-2.964 0.687,-0.859 1.404,-1.503 2.131,-1.917 0.765,-0.436 1.652,-0.657 2.636,-0.657 0.449,0 0.872,0.048 1.256,0.141 0.372,0.09 0.809,0.245 1.337,0.476 0.219,0.094 0.387,0.277 0.465,0.503 0.077,0.225 0.056,0.472 -0.058,0.682 z" /></g><g
           transform="translate(404.4233,374.8359)"
           id="g28"><path
             id="path30"
             style="fill:#1A1E1D;fill-opacity:1;fill-rule:nonzero;stroke:none"
             d="m 0,0 h -1.43 c -0.469,0 -0.85,-0.381 -0.85,-0.851 v -11.562 c 0,-2.906 -0.514,-5.029 -1.526,-6.31 -0.469,-0.59 -1.038,-1.013 -1.737,-1.293 -0.731,-0.29 -1.622,-0.436 -2.648,-0.436 -1.015,0 -1.902,0.149 -2.636,0.444 -0.706,0.281 -1.277,0.707 -1.747,1.301 -1.013,1.277 -1.526,3.395 -1.526,6.294 v 11.562 c 0,0.47 -0.381,0.851 -0.851,0.851 h -1.554 c -0.242,0 -0.472,-0.103 -0.633,-0.283 -0.161,-0.18 -0.238,-0.42 -0.212,-0.66 l 0.134,-1.182 v -10.351 c 0,-3.837 0.827,-6.701 2.456,-8.508 1.487,-1.662 3.697,-2.506 6.569,-2.506 1.409,0 2.673,0.197 3.76,0.586 1.131,0.404 2.103,1.055 2.892,1.939 0.796,0.9 1.404,2.075 1.806,3.494 0.387,1.368 0.584,3.049 0.584,4.995 V -0.851 C 0.851,-0.381 0.47,0 0,0" /></g><g
           transform="translate(429.1182,365.3428)"
           id="g32"><path
             id="path34"
             style="fill:#1A1E1D;fill-opacity:1;fill-rule:nonzero;stroke:none"
             d="m 0,0 v 0 c -0.292,-0.506 -0.704,-0.887 -1.26,-1.165 -0.533,-0.267 -1.188,-0.45 -1.949,-0.546 -0.816,-0.103 -1.821,-0.156 -2.986,-0.156 h -3.268 v 8.385 h 3.423 c 1.118,0 2.091,-0.06 2.892,-0.178 0.74,-0.108 1.379,-0.31 1.891,-0.595 C -0.713,5.432 -0.306,5.004 -0.011,4.436 0.292,3.852 0.445,3.065 0.445,2.1 0.445,1.219 0.295,0.513 0,0 M -1.576,9.063 C -1.58,9.064 -1.583,9.065 -1.587,9.066 -2.795,9.35 -4.356,9.493 -6.227,9.493 h -5.609 c -0.238,0 -0.465,-0.099 -0.626,-0.275 -0.161,-0.175 -0.242,-0.41 -0.221,-0.647 l 0.104,-1.203 v -20.11 c 0,-0.47 0.381,-0.851 0.851,-0.851 h 1.415 c 0.469,0 0.85,0.381 0.85,0.851 v 7.914 h 3.346 c 1.404,0 2.669,0.093 3.763,0.276 1.137,0.193 2.133,0.523 2.959,0.982 1.961,1.091 2.956,3.008 2.956,5.701 0,2.015 -0.484,3.625 -1.442,4.788 -0.86,1.027 -2.103,1.749 -3.695,2.144" /></g><g
           transform="translate(455.2729,357.2754)"
           id="g36"><path
             id="path38"
             style="fill:#1A1E1D;fill-opacity:1;fill-rule:nonzero;stroke:none"
             d="m 0,0 c -0.519,-1.126 -1.241,-1.889 -2.207,-2.332 -0.428,-0.196 -0.891,-0.336 -1.376,-0.416 -1.096,-0.18 -2.572,-0.168 -3.631,0.017 -0.518,0.086 -0.993,0.241 -1.415,0.46 -0.93,0.477 -1.612,1.28 -2.086,2.455 -0.578,1.422 -0.871,3.417 -0.871,5.926 0,2.528 0.324,4.522 0.963,5.923 0.52,1.128 1.24,1.899 2.193,2.35 0.425,0.194 0.886,0.332 1.369,0.407 0.519,0.08 1.106,0.121 1.743,0.121 1.394,0 2.51,-0.205 3.317,-0.609 0.936,-0.468 1.621,-1.268 2.095,-2.448 C 0.661,10.448 0.949,8.453 0.949,5.925 0.949,3.376 0.63,1.382 0,0 m 2.006,14.832 c -10e-4,10e-4 -0.002,0.002 -0.003,0.003 -0.774,1.056 -1.792,1.851 -3.023,2.363 -1.19,0.498 -2.637,0.751 -4.298,0.751 -2.497,0 -4.532,-0.611 -6.044,-1.815 -1.312,-1.032 -2.242,-2.548 -2.766,-4.504 -0.391,-1.467 -0.589,-3.324 -0.589,-5.52 0,-1.957 0.161,-3.68 0.478,-5.124 0.33,-1.497 0.867,-2.764 1.598,-3.771 0.774,-1.054 1.785,-1.851 3.003,-2.368 1.184,-0.505 2.627,-0.761 4.288,-0.761 2.538,0 4.583,0.606 6.082,1.805 1.308,1.052 2.236,2.571 2.759,4.512 0.39,1.453 0.589,3.311 0.589,5.522 0,1.966 -0.162,3.695 -0.478,5.14 -0.331,1.497 -0.868,2.763 -1.596,3.767" /></g><g
           transform="translate(486.3799,374.8359)"
           id="g40"><path
             id="path42"
             style="fill:#1A1E1D;fill-opacity:1;fill-rule:nonzero;stroke:none"
             d="m 0,0 h -1.539 c -0.24,0 -0.469,-0.102 -0.63,-0.279 -0.161,-0.178 -0.24,-0.415 -0.216,-0.655 l 0.12,-1.232 v -20.069 c 0,-0.47 0.381,-0.851 0.85,-0.851 H 0 c 0.47,0 0.851,0.381 0.851,0.851 V -0.851 C 0.851,-0.381 0.47,0 0,0" /></g><g
           transform="translate(515.0166,353.4512)"
           id="g44"><path
             id="path46"
             style="fill:#1A1E1D;fill-opacity:1;fill-rule:nonzero;stroke:none"
             d="M 0,0 H -0.446 L -0.543,0.148 C -0.335,0.154 -0.145,0.233 0,0.362 Z m -14.186,19.333 -0.033,0.351 h 0.499 l 0.087,-0.133 c -0.212,-0.004 -0.406,-0.086 -0.553,-0.218 m 15.037,2.052 h -1.415 c -0.47,0 -0.851,-0.381 -0.851,-0.851 V 4.009 L -12.549,21 c -0.158,0.24 -0.425,0.385 -0.712,0.385 h -1.896 c -0.239,0 -0.468,-0.102 -0.63,-0.28 -0.161,-0.177 -0.239,-0.415 -0.216,-0.654 l 0.12,-1.191 V -0.851 c 0,-0.469 0.381,-0.85 0.851,-0.85 h 1.414 c 0.47,0 0.851,0.381 0.851,0.85 V 15.743 L -1.618,-1.315 c 0.158,-0.241 0.425,-0.386 0.712,-0.386 h 1.757 c 0.469,0 0.85,0.381 0.85,0.85 v 21.385 c 0,0.47 -0.381,0.851 -0.85,0.851" /></g><g
           transform="translate(546.1621,372.085)"
           id="g48"><path
             id="path50"
             style="fill:#1A1E1D;fill-opacity:1;fill-rule:nonzero;stroke:none"
             d="m 0,0 h -0.234 c -0.02,0 -0.038,-0.001 -0.058,-0.002 L 0.221,1.05 H 0.525 L 0.562,-0.213 C 0.412,-0.08 0.215,0 0,0 m -8.175,-15.512 -0.198,0.408 c 0.064,-0.016 0.131,-0.024 0.198,-0.024 h 0.125 c 0.021,0 0.042,10e-4 0.063,0.003 z M -16.054,0 h -0.156 c -0.186,0 -0.358,-0.06 -0.498,-0.161 l 0.027,0.757 c 0.001,0.037 0,0.075 -0.004,0.112 l -0.033,0.342 h 0.177 L -16.032,0 Z M 1.352,2.751 h -1.664 c -0.325,0 -0.622,-0.186 -0.764,-0.479 L -8.178,-12.32 -15.242,2.271 c -0.142,0.293 -0.44,0.48 -0.766,0.48 h -1.647 c -0.24,0 -0.468,-0.102 -0.63,-0.279 -0.161,-0.178 -0.239,-0.415 -0.216,-0.654 l 0.118,-1.218 -0.713,-20.054 c -0.008,-0.231 0.078,-0.455 0.238,-0.621 0.16,-0.166 0.381,-0.26 0.612,-0.26 h 1.43 c 0.459,0 0.835,0.364 0.85,0.823 l 0.492,15.144 6.115,-12.597 c 0.142,-0.293 0.439,-0.479 0.765,-0.479 h 0.839 c 0.326,0 0.623,0.186 0.765,0.479 l 6.237,12.855 0.463,-15.4 c 0.014,-0.46 0.39,-0.825 0.85,-0.825 h 1.413 c 0.229,0 0.45,0.093 0.61,0.258 0.16,0.165 0.246,0.388 0.239,0.617 L 2.201,1.925 C 2.188,2.385 1.812,2.751 1.352,2.751" /></g><g
           transform="translate(573.8506,357.2764)"
           id="g52"><path
             id="path54"
             style="fill:#1A1E1D;fill-opacity:1;fill-rule:nonzero;stroke:none"
             d="m 0,0 c -0.52,-1.127 -1.242,-1.89 -2.208,-2.333 -0.428,-0.196 -0.891,-0.336 -1.376,-0.416 -1.098,-0.179 -2.572,-0.167 -3.631,0.017 -0.517,0.086 -0.992,0.241 -1.414,0.461 -0.931,0.477 -1.613,1.279 -2.087,2.454 -0.578,1.421 -0.871,3.416 -0.871,5.926 0,2.529 0.324,4.523 0.963,5.923 0.52,1.128 1.24,1.899 2.193,2.35 0.426,0.194 0.886,0.332 1.369,0.407 0.52,0.08 1.106,0.121 1.743,0.121 1.393,0 2.509,-0.205 3.318,-0.609 0.935,-0.468 1.619,-1.268 2.094,-2.448 C 0.661,10.446 0.948,8.451 0.948,5.924 0.948,3.375 0.629,1.382 0,0 m 2.004,14.831 c 0,0.001 -10e-4,0.002 -0.002,0.003 -0.773,1.056 -1.791,1.851 -3.023,2.363 -1.19,0.498 -2.636,0.751 -4.298,0.751 -2.496,0 -4.531,-0.611 -6.044,-1.815 -1.313,-1.033 -2.243,-2.548 -2.767,-4.504 -0.39,-1.468 -0.588,-3.325 -0.588,-5.52 0,-1.956 0.161,-3.679 0.479,-5.125 0.33,-1.497 0.867,-2.764 1.597,-3.771 0.775,-1.054 1.786,-1.851 3.003,-2.367 1.185,-0.505 2.627,-0.761 4.288,-0.761 2.538,0 4.584,0.606 6.081,1.805 1.308,1.051 2.236,2.57 2.76,4.512 0.391,1.455 0.589,3.313 0.589,5.522 0,1.968 -0.161,3.697 -0.479,5.139 -0.329,1.498 -0.867,2.764 -1.596,3.768" /></g><g
           transform="translate(600.2217,355.5332)"
           id="g56"><path
             id="path58"
             style="fill:#1A1E1D;fill-opacity:1;fill-rule:nonzero;stroke:none"
             d="m 0,0 c -0.001,-0.001 -0.002,-0.002 -0.003,-0.002 -0.66,-0.535 -1.692,-0.806 -3.069,-0.806 h -5.662 v 7.64 h 4.418 c 0.859,0 1.635,-0.054 2.304,-0.16 0.615,-0.099 1.157,-0.279 1.61,-0.536 C 0.605,5.559 1.096,4.514 1.096,2.941 1.096,1.554 0.737,0.592 0,0 m -1.945,8.382 c -0.051,0.007 -0.103,0.014 -0.155,0.02 0.051,0.013 0.101,0.027 0.151,0.039 V 8.432 c 0.001,-0.017 0.003,-0.034 0.004,-0.05 m -6.789,7.945 h 3.066 c 1.037,0 1.912,-0.035 2.604,-0.105 0.618,-0.062 1.153,-0.19 1.585,-0.379 0.438,-0.197 0.76,-0.484 0.986,-0.876 0.24,-0.418 0.362,-1.024 0.362,-1.799 0,-1.851 -0.829,-2.474 -1.456,-2.783 C -2.041,10.159 -2.585,10.004 -3.206,9.925 -3.882,9.836 -4.684,9.792 -5.591,9.792 H -8.734 Z M 1.035,8.642 C 1.017,8.651 0.999,8.66 0.981,8.67 c 0.251,0.214 0.484,0.453 0.696,0.717 0.393,0.489 0.715,1.054 0.956,1.683 0.243,0.639 0.366,1.339 0.366,2.083 0,2.076 -0.685,3.644 -2.038,4.661 -0.694,0.515 -1.592,0.899 -2.666,1.142 -1.024,0.23 -2.274,0.347 -3.715,0.347 h -5.719 c -0.241,0 -0.471,-0.103 -0.632,-0.283 -0.163,-0.18 -0.24,-0.42 -0.213,-0.661 l 0.134,-1.181 0.004,-18.852 -0.109,-1.18 c -0.023,-0.239 0.057,-0.475 0.218,-0.652 0.161,-0.177 0.389,-0.277 0.629,-0.277 h 7.895 c 2.144,0 3.856,0.458 5.087,1.361 1.541,1.13 2.322,2.945 2.322,5.396 0,1.736 -0.509,3.205 -1.52,4.372 -0.471,0.53 -1.024,0.966 -1.641,1.296" /></g><g
           transform="translate(617.1875,374.8359)"
           id="g60"><path
             id="path62"
             style="fill:#1A1E1D;fill-opacity:1;fill-rule:nonzero;stroke:none"
             d="m 0,0 h -1.539 c -0.24,0 -0.469,-0.102 -0.63,-0.279 -0.161,-0.178 -0.239,-0.415 -0.217,-0.654 l 0.12,-1.233 v -20.069 c 0,-0.47 0.381,-0.851 0.851,-0.851 H 0 c 0.47,0 0.851,0.381 0.851,0.851 V -0.851 C 0.851,-0.381 0.47,0 0,0" /></g><g
           transform="translate(642.9902,354.7256)"
           id="g64"><path
             id="path66"
             style="fill:#1A1E1D;fill-opacity:1;fill-rule:nonzero;stroke:none"
             d="m 0,0 h -9.935 v 19.26 c 0,0.469 -0.38,0.85 -0.85,0.85 h -1.414 c -0.47,0 -0.851,-0.381 -0.851,-0.85 l 0.005,-20.017 -0.141,-1.274 c -0.026,-0.241 0.051,-0.482 0.212,-0.661 0.162,-0.18 0.392,-0.284 0.634,-0.284 H 0 c 0.47,0 0.851,0.381 0.851,0.851 v 1.274 C 0.851,-0.381 0.47,0 0,0" /></g><g
           transform="translate(655.0879,374.8359)"
           id="g68"><path
             id="path70"
             style="fill:#1A1E1D;fill-opacity:1;fill-rule:nonzero;stroke:none"
             d="m 0,0 h -1.539 c -0.24,0 -0.469,-0.102 -0.63,-0.279 -0.161,-0.178 -0.24,-0.415 -0.217,-0.655 l 0.121,-1.233 v -20.068 c 0,-0.47 0.381,-0.851 0.851,-0.851 H 0 c 0.47,0 0.851,0.381 0.851,0.851 V -0.851 C 0.851,-0.381 0.47,0 0,0" /></g><g
           transform="translate(680.3955,357.8877)"
           id="g72"><path
             id="path74"
             style="fill:#1A1E1D;fill-opacity:1;fill-rule:nonzero;stroke:none"
             d="M 0,0 C 0.012,0.016 0.023,0.032 0.035,0.049 0.043,0.06 0.05,0.071 0.058,0.083 L 0.102,-0.032 C 0.068,-0.02 0.034,-0.009 0,0 m -9.8,1.362 3.923,9.951 3.955,-9.939 z m 4.01,13.885 0.005,-0.01 c -0.015,0 -0.029,10e-4 -0.044,10e-4 h -0.06 z m 9.112,-18.904 -7.734,20.06 c -0.127,0.328 -0.442,0.545 -0.794,0.545 h -1.26 c -0.35,0 -0.665,-0.215 -0.792,-0.541 l -8.345,-21.385 c -0.102,-0.261 -0.068,-0.557 0.09,-0.789 0.159,-0.232 0.421,-0.371 0.702,-0.371 h 1.492 c 0.349,0 0.664,0.215 0.792,0.54 l 1.538,3.928 c 0.036,-0.004 0.073,-0.007 0.11,-0.007 H -0.788 L 0.713,-5.592 C 0.839,-5.92 1.154,-6.138 1.507,-6.138 h 1.725 c 0.299,0 0.577,0.158 0.73,0.414 0.154,0.257 0.161,0.576 0.019,0.839 z" /></g><g
           transform="translate(699.9512,363.4756)"
           id="g76"><path
             id="path78"
             style="fill:#1A1E1D;fill-opacity:1;fill-rule:nonzero;stroke:none"
             d="m 0,0 h -3.268 v 8.385 h 3.252 c 1.14,0 2.135,-0.06 2.957,-0.178 C 3.704,8.099 4.367,7.895 4.9,7.607 5.464,7.292 5.883,6.866 6.18,6.305 6.485,5.727 6.641,4.94 6.641,3.967 6.641,3.043 6.49,2.309 6.192,1.783 5.905,1.277 5.5,0.906 4.956,0.65 4.421,0.4 3.766,0.229 3.01,0.142 2.208,0.048 1.195,0 0,0 m 1.145,-1.771 -0.049,0.084 c 0.029,0 0.057,0.001 0.086,0.002 C 1.168,-1.713 1.155,-1.741 1.145,-1.771 M 11.16,-9.257 C 10.95,-8.872 10.484,-8.71 10.081,-8.88 9.915,-8.95 9.701,-9.011 9.444,-9.061 9.429,-9.063 9.412,-9.067 9.396,-9.071 9.059,-9.156 8.886,-9.169 8.813,-9.169 c -0.366,0 -0.738,0.136 -1.14,0.416 -0.471,0.326 -0.97,0.828 -1.488,1.497 -0.483,0.611 -0.995,1.358 -1.519,2.216 -0.384,0.63 -0.83,1.384 -1.336,2.264 0.619,0.087 1.196,0.205 1.725,0.352 0.931,0.26 1.746,0.65 2.416,1.154 1.516,1.13 2.286,2.902 2.286,5.268 0,1.453 -0.245,2.682 -0.728,3.649 -0.494,0.996 -1.222,1.794 -2.17,2.378 -0.82,0.497 -1.816,0.851 -2.96,1.05 -1.085,0.19 -2.359,0.285 -3.79,0.285 h -5.75 c -0.238,0 -0.464,-0.099 -0.626,-0.275 -0.161,-0.175 -0.241,-0.409 -0.221,-0.647 l 0.104,-1.203 v -20.11 c 0,-0.47 0.381,-0.851 0.851,-0.851 h 1.415 c 0.47,0 0.85,0.381 0.85,0.851 v 7.914 h 3.14 l 2.143,-3.646 c 0.699,-1.207 1.361,-2.205 1.968,-2.966 0.688,-0.858 1.405,-1.502 2.131,-1.916 0.765,-0.436 1.652,-0.657 2.637,-0.657 0.448,0 0.871,0.048 1.254,0.141 0.372,0.09 0.809,0.245 1.339,0.476 0.219,0.094 0.386,0.277 0.465,0.503 0.077,0.225 0.056,0.472 -0.058,0.682 z" /></g><g
           transform="translate(723.2383,374.8359)"
           id="g80"><path
             id="path82"
             style="fill:#1A1E1D;fill-opacity:1;fill-rule:nonzero;stroke:none"
             d="m 0,0 h -1.539 c -0.24,0 -0.469,-0.102 -0.63,-0.279 -0.161,-0.178 -0.24,-0.415 -0.217,-0.655 l 0.121,-1.233 v -20.068 c 0,-0.47 0.381,-0.851 0.851,-0.851 H 0 c 0.47,0 0.851,0.381 0.851,0.851 V -0.851 C 0.851,-0.381 0.47,0 0,0" /></g><g
           transform="translate(749.2959,357.2764)"
           id="g84"><path
             id="path86"
             style="fill:#1A1E1D;fill-opacity:1;fill-rule:nonzero;stroke:none"
             d="m 0,0 c -0.52,-1.126 -1.242,-1.89 -2.209,-2.333 -0.429,-0.196 -0.892,-0.336 -1.376,-0.416 -1.097,-0.179 -2.57,-0.167 -3.63,0.017 -0.518,0.086 -0.994,0.241 -1.415,0.461 -0.93,0.476 -1.612,1.279 -2.087,2.453 -0.577,1.423 -0.87,3.418 -0.87,5.927 0,2.529 0.324,4.523 0.963,5.923 0.52,1.128 1.24,1.899 2.192,2.35 0.425,0.194 0.886,0.332 1.37,0.407 0.519,0.08 1.105,0.121 1.742,0.121 1.394,0 2.51,-0.205 3.319,-0.609 0.935,-0.468 1.619,-1.268 2.094,-2.447 C 0.66,10.445 0.947,8.451 0.947,5.924 0.947,3.376 0.629,1.383 0,0 m 3.6,11.063 c -0.329,1.495 -0.866,2.762 -1.598,3.771 -0.773,1.055 -1.791,1.851 -3.023,2.363 -1.191,0.498 -2.637,0.751 -4.299,0.751 -2.496,0 -4.531,-0.611 -6.043,-1.815 -1.312,-1.033 -2.242,-2.548 -2.768,-4.504 -0.39,-1.468 -0.588,-3.325 -0.588,-5.52 0,-1.958 0.161,-3.681 0.48,-5.124 0.329,-1.496 0.865,-2.763 1.597,-3.771 0.773,-1.054 1.784,-1.851 3.003,-2.368 1.185,-0.505 2.627,-0.761 4.288,-0.761 2.538,0 4.583,0.606 6.081,1.805 1.309,1.053 2.237,2.572 2.759,4.512 0.391,1.452 0.589,3.309 0.589,5.522 0,1.971 -0.161,3.7 -0.478,5.139" /></g><g
           transform="translate(469.3408,520.791)"
           id="g88"><path
             id="path90"
             style="fill:#1A1E1D;fill-opacity:1;fill-rule:nonzero;stroke:none"
             d="M 0,0 -35.386,-113.996 H -74.13 l -18.141,68.308 -18.141,-68.308 h -38.744 L -184.542,0 h 33.146 l 21.052,-76.37 20.38,76.37 h 35.385 L -54.198,-76.37 -33.146,0 Z" /></g><g
           transform="translate(524.7866,432.7754)"
           id="g92"><path
             id="path94"
             style="fill:#1A1E1D;fill-opacity:1;fill-rule:nonzero;stroke:none"
             d="m 0,0 c 4.178,0 8.175,0.814 11.981,2.452 3.808,1.638 7.129,3.832 9.967,6.583 2.835,2.75 5.074,6.026 6.719,9.819 1.641,3.793 2.463,7.849 2.463,12.165 0,4.31 -0.822,8.366 -2.463,12.159 -1.645,3.793 -3.884,7.069 -6.719,9.819 -2.838,2.751 -6.159,4.944 -9.967,6.582 C 8.175,61.218 4.178,62.035 0,62.035 c -4.332,0 -8.398,-0.817 -12.206,-2.456 -3.807,-1.638 -7.093,-3.831 -9.854,-6.582 -2.765,-2.75 -4.965,-6.026 -6.607,-9.819 -1.645,-3.793 -2.463,-7.849 -2.463,-12.159 0,-4.316 0.818,-8.372 2.463,-12.165 1.642,-3.793 3.842,-7.069 6.607,-9.819 2.761,-2.751 6.047,-4.945 9.854,-6.583 C -8.398,0.814 -4.332,0 0,0 M 63.604,88.016 V -25.98 H 30.01 v 9.057 c -4.78,-4.063 -10.005,-7.335 -15.677,-9.816 -5.676,-2.478 -11.645,-3.72 -17.916,-3.72 -8.511,0 -16.539,1.605 -24.076,4.814 -7.541,3.209 -14.074,7.616 -19.596,13.215 -5.526,5.599 -9.893,12.128 -13.102,19.596 -3.212,7.464 -4.815,15.376 -4.815,23.74 0,8.51 1.641,16.534 4.927,24.075 3.283,7.538 7.727,14.072 13.326,19.596 5.599,5.523 12.128,9.89 19.596,13.103 7.465,3.209 15.376,4.814 23.74,4.814 6.271,0 12.24,-1.231 17.916,-3.695 5.672,-2.463 10.897,-5.638 15.677,-9.518 v 8.735 z" /></g><g
           transform="translate(660.0166,525.2695)"
           id="g96"><path
             id="path98"
             style="fill:#1A1E1D;fill-opacity:1;fill-rule:nonzero;stroke:none"
             d="m 0,0 c 3.583,0 7.127,-0.263 10.638,-0.784 3.507,-0.525 6.83,-1.382 9.966,-2.575 l -6.943,-30.458 c -0.301,0.895 -1.792,1.679 -4.478,2.351 -2.689,0.672 -5.376,1.007 -8.064,1.007 -5.375,0 -10.155,-0.598 -14.333,-1.791 -4.182,-1.196 -7.727,-2.652 -10.639,-4.367 -2.911,-1.718 -5.15,-3.584 -6.718,-5.6 -1.568,-2.014 -2.352,-3.919 -2.352,-5.71 v -70.548 H -66.517 V -4.479 h 33.594 v -17.693 c 0.595,2.239 2.128,4.664 4.592,7.279 2.463,2.611 5.298,5 8.51,7.166 3.209,2.163 6.568,3.994 10.078,5.488 C -6.236,-0.748 -2.989,0 0,0" /></g><g
           transform="translate(737.2295,432.7754)"
           id="g100"><path
             id="path102"
             style="fill:#1A1E1D;fill-opacity:1;fill-rule:nonzero;stroke:none"
             d="m 0,0 c 4.179,0 8.175,0.814 11.981,2.452 3.808,1.638 7.129,3.832 9.967,6.583 2.834,2.75 5.074,6.026 6.719,9.819 1.642,3.793 2.463,7.849 2.463,12.165 0,4.31 -0.821,8.366 -2.463,12.159 -1.645,3.793 -3.885,7.069 -6.719,9.819 -2.838,2.751 -6.159,4.944 -9.967,6.582 C 8.175,61.218 4.179,62.035 0,62.035 c -4.332,0 -8.398,-0.817 -12.206,-2.456 -3.807,-1.638 -7.092,-3.831 -9.855,-6.582 -2.763,-2.75 -4.963,-6.026 -6.605,-9.819 -1.646,-3.793 -2.464,-7.849 -2.464,-12.159 0,-4.316 0.818,-8.372 2.464,-12.165 1.642,-3.793 3.842,-7.069 6.605,-9.819 2.763,-2.751 6.048,-4.945 9.855,-6.583 C -8.398,0.814 -4.332,0 0,0 M 63.604,88.016 V -25.98 H 30.011 v 9.057 c -4.781,-4.063 -10.005,-7.335 -15.677,-9.816 -5.676,-2.478 -11.646,-3.72 -17.917,-3.72 -8.511,0 -16.538,1.605 -24.075,4.814 -7.541,3.209 -14.074,7.616 -19.597,13.215 -5.525,5.599 -9.892,12.128 -13.101,19.596 -3.213,7.464 -4.816,15.376 -4.816,23.74 0,8.51 1.642,16.534 4.928,24.075 3.282,7.538 7.725,14.072 13.325,19.596 5.6,5.523 12.129,9.89 19.597,13.103 7.464,3.209 15.376,4.814 23.739,4.814 6.271,0 12.241,-1.231 17.917,-3.695 5.672,-2.463 10.896,-5.638 15.677,-9.518 v 8.735 z" /></g><g
           transform="translate(708.7246,718.7266)"
           id="g104"><path
             id="path106"
             style="fill:#FFFFFF;fill-opacity:1;fill-rule:nonzero;stroke:none"
             d="m 0,0 c -3.644,7.038 -10.908,11.456 -18.832,11.456 h -71.116 c -11.714,0 -21.208,-9.496 -21.208,-21.209 0,-11.714 9.494,-21.209 21.208,-21.209 h 30.164 l -51.369,-72.705 -75,106.152 c -3.974,5.626 -10.433,8.971 -17.321,8.971 h -109.509 c -7.925,0 -15.189,-4.418 -18.834,-11.456 -3.643,-7.037 -3.061,-15.519 1.512,-21.991 l 6.338,-8.971 85.984,-121.697 c 6.755,-9.566 19.995,-11.843 29.558,-5.083 9.567,6.759 11.842,19.993 5.083,29.56 l -68.689,97.22 h 57.574 l 85.982,-121.697 c 0.05,-0.071 0.111,-0.131 0.163,-0.201 0.396,-0.548 0.823,-1.078 1.276,-1.591 0.099,-0.112 0.19,-0.233 0.291,-0.342 0.532,-0.576 1.096,-1.129 1.7,-1.651 0.221,-0.192 0.458,-0.357 0.686,-0.538 0.32,-0.256 0.629,-0.521 0.967,-0.76 0.079,-0.056 0.161,-0.101 0.239,-0.155 0.198,-0.136 0.4,-0.262 0.602,-0.391 0.492,-0.314 0.991,-0.606 1.499,-0.875 0.139,-0.073 0.274,-0.154 0.414,-0.225 0.663,-0.333 1.34,-0.62 2.024,-0.878 0.127,-0.048 0.256,-0.091 0.384,-0.136 0.706,-0.251 1.418,-0.472 2.139,-0.644 0.009,-0.002 0.018,-0.004 0.027,-0.007 0.75,-0.178 1.505,-0.306 2.265,-0.401 0.128,-0.016 0.257,-0.03 0.386,-0.044 0.746,-0.079 1.493,-0.132 2.24,-0.132 0.006,0 0.013,0.001 0.019,0.001 0.007,0 0.012,-0.001 0.019,-0.001 0.748,0 1.496,0.053 2.244,0.133 0.126,0.014 0.252,0.027 0.378,0.043 0.762,0.095 1.521,0.224 2.274,0.402 0.003,0.001 0.006,0.002 0.009,0.003 0.727,0.173 1.447,0.396 2.16,0.649 0.124,0.044 0.248,0.086 0.371,0.132 0.687,0.259 1.366,0.548 2.032,0.882 0.137,0.068 0.267,0.147 0.402,0.218 0.512,0.271 1.016,0.566 1.512,0.883 0.2,0.127 0.399,0.252 0.596,0.387 0.079,0.054 0.162,0.1 0.24,0.156 0.341,0.241 0.652,0.508 0.975,0.764 0.224,0.18 0.46,0.343 0.678,0.533 0.605,0.523 1.168,1.076 1.701,1.652 0.101,0.109 0.192,0.23 0.291,0.342 0.454,0.513 0.88,1.043 1.277,1.591 0.052,0.07 0.111,0.13 0.162,0.201 l 85.983,121.697 6.338,8.971 C 3.063,-15.519 3.645,-7.037 0,0" /></g></g></g></g></svg>

